#!OML:ASF F:\VICON\USERDATA\INSTALL\rory3\rory3.ASF
:FULLY-SPECIFIED
:DEGREES
2512
root -1.57394 17.1472 1.02693 -1.31927 9.22302 24.2372
lowerback 1.15307 -4.32316 6.96506
upperback -3.19354 -4.84546 17.6739
thorax -3.08729 -2.28023 15.9677
lowerneck -21.3682 -6.66499 -10.6107
upperneck 26.643 -6.63437 2.34979
head 12.9401 -3.6971 1.50746
rclavicle 2.127e-014 -6.99722e-014
rhumerus -38.0225 -45.9646 -9.2214
rradius 44.9265
rwrist -19.7436
rhand -31.9207 -1.49861
rfingers 7.12502
rthumb -5.1722 -31.4155
lclavicle 2.127e-014 -6.99722e-014
lhumerus 24.0175 43.8455 -1.65358
lradius 53.9426
lwrist -18.0738
lhand -24.34 10.7051
lfingers 7.12502
lthumb 2.14897 40.674
rfemur -4.04387 4.55175 -12.2612
rtibia 44.9124
rfoot -35.1878 -8.1117
rtoes 0.302482
lfemur 5.24363 8.59171 -38.6374
ltibia 10.6857
lfoot -7.38492 -16.4236
ltoes -12.4219
2513
root -1.57927 17.1416 1.0272 -1.3161 9.21683 24.4027
lowerback 1.11333 -4.27547 6.8657
upperback -3.10225 -4.80939 17.7273
thorax -2.95884 -2.26457 16.0863
lowerneck -21.7212 -6.71085 -10.6597
upperneck 26.819 -6.65544 2.39608
head 13.0892 -3.70291 1.51973
rclavicle 2.31584e-014 -2.8625e-014
rhumerus -37.993 -46.1259 -9.28351
rradius 44.893
rwrist -19.7428
rhand -31.7814 -1.41775
rfingers 7.12502
rthumb -5.03768 -31.3379
lclavicle 2.31584e-014 -2.8625e-014
lhumerus 24.3233 43.9948 -1.45915
lradius 53.8947
lwrist -18.1671
lhand -25.4778 10.5474
lfingers 7.12502
lthumb 1.05015 40.5245
rfemur -4.08019 4.38285 -12.4965
rtibia 44.9977
rfoot -35.0738 -8.01866
rtoes -0.187358
lfemur 5.29298 8.67202 -38.7749
ltibia 10.6126
lfoot -7.26676 -16.5108
ltoes -12.0888
2514
root -1.58495 17.1422 1.02725 -1.37261 9.23606 24.3583
lowerback 1.18342 -4.21184 6.97168
upperback -3.08525 -4.70517 17.814
thorax -3.00658 -2.20992 16.1417
lowerneck -21.9095 -6.7314 -10.7143
upperneck 26.9727 -6.67972 2.50801
head 13.1993 -3.70299 1.56262
rclavicle 1.72446e-014 -8.26944e-014
rhumerus -38.0888 -45.9241 -9.25853
rradius 44.8575
rwrist -20.0744
rhand -31.8378 -1.52026
rfingers 7.12502
rthumb -5.09211 -31.4391
lclavicle 1.72446e-014 -8.26944e-014
lhumerus 24.4955 43.87 -1.45295
lradius 54.0443
lwrist -18.0162
lhand -26.1141 11.0265
lfingers 7.12502
lthumb 0.435547 41.0058
rfemur -4.09276 4.21002 -12.4811
rtibia 45.0893
rfoot -34.9912 -8.18792
rtoes -1.42856
lfemur 5.40341 8.64682 -38.6894
ltibia 10.4991
lfoot -7.16826 -16.5298
ltoes -11.9069
2515
root -1.59001 17.1442 1.02647 -1.36106 9.25215 24.5727
lowerback 1.18388 -4.14205 6.80343
upperback -3.08209 -4.61889 17.8199
thorax -3.00768 -2.1622 16.253
lowerneck -21.939 -6.75683 -10.6782
upperneck 27.0688 -6.73674 2.52968
head 13.2485 -3.72135 1.55373
rclavicle -3.89618e-014 1.59028e-014
rhumerus -38.2912 -46.1041 -9.11079
rradius 44.7312
rwrist -19.8589
rhand -31.8844 -1.52875
rfingers 7.12502
rthumb -5.13707 -31.4465
lclavicle -3.89618e-014 1.59028e-014
lhumerus 24.7456 43.8041 -1.37397
lradius 54.1454
lwrist -18.0345
lhand -26.4372 11.2801
lfingers 7.12502
lthumb 0.12345 41.2598
rfemur -4.17999 4.16208 -12.7406
rtibia 45.1946
rfoot -34.9293 -8.43992
rtoes -2.54653
lfemur 5.42657 8.68801 -38.877
ltibia 10.5021
lfoot -7.14486 -16.5386
ltoes -11.725
2516
root -1.59677 17.1384 1.02348 -1.34925 9.19061 24.7263
lowerback 1.13155 -4.06074 6.68871
upperback -3.0212 -4.53594 17.8554
thorax -2.91697 -2.1214 16.36
lowerneck -21.9176 -6.79208 -10.7075
upperneck 26.9758 -6.79538 2.59005
head 13.2138 -3.74008 1.57185
rclavicle -4.81556e-014 2.8625e-014
rhumerus -38.4222 -46.3593 -9.00629
rradius 44.5791
rwrist -19.6294
rhand -31.9376 -1.48896
rfingers 7.12502
rthumb -5.1885 -31.4054
lclavicle -4.81556e-014 2.8625e-014
lhumerus 25.0399 43.8922 -1.25103
lradius 54.2023
lwrist -18.0574
lhand -26.3055 10.9902
lfingers 7.12502
lthumb 0.250693 40.9698
rfemur -4.27394 4.12963 -12.9633
rtibia 45.2747
rfoot -34.9024 -7.98963
rtoes -1.41987
lfemur 5.36117 8.78976 -39.0056
ltibia 10.6192
lfoot -7.27627 -16.5636
ltoes -12.1079
2517
root -1.60362 17.1302 1.01748 -1.4722 9.12006 24.7402
lowerback 1.22682 -3.98764 6.7206
upperback -2.95591 -4.43089 17.8805
thorax -2.92536 -2.06875 16.3771
lowerneck -21.7642 -6.81625 -10.6068
upperneck 26.8736 -6.89469 2.622
head 13.144 -3.76826 1.55397
rclavicle -3.11098e-014 7.95139e-014
rhumerus -38.6708 -46.2423 -8.99413
rradius 44.5966
rwrist -19.7881
rhand -32.1754 -1.48473
rfingers 7.12502
rthumb -5.41804 -31.3955
lclavicle -3.11098e-014 7.95139e-014
lhumerus 25.5838 43.9545 -1.03748
lradius 54.2045
lwrist -18.2599
lhand -26.3117 10.7782
lfingers 7.12502
lthumb 0.244694 40.7578
rfemur -4.23408 4.16114 -13.0394
rtibia 45.3588
rfoot -35.0442 -6.91347
rtoes 1.27319
lfemur 5.42683 8.8342 -38.9761
ltibia 10.716
lfoot -7.41428 -16.4938
ltoes -12.1983
2518
root -1.60855 17.1288 1.01061 -1.56216 9.08423 24.7041
lowerback 1.34362 -3.92358 6.77669
upperback -2.93416 -4.32229 17.9473
thorax -2.99376 -2.01088 16.4412
lowerneck -21.7296 -6.86263 -10.536
upperneck 26.9437 -7.00431 2.6472
head 13.1716 -3.80558 1.53274
rclavicle -3.36692e-014 1.17681e-013
rhumerus -38.8791 -45.9223 -8.95849
rradius 44.6371
rwrist -20.2654
rhand -32.4502 -1.3078
rfingers 7.12502
rthumb -5.68344 -31.2116
lclavicle -3.36692e-014 1.17681e-013
lhumerus 25.9158 43.8777 -0.990217
lradius 54.3387
lwrist -18.1481
lhand -26.5764 11.1268
lfingers 7.12502
lthumb -0.0109725 41.1065
rfemur -4.24208 3.91405 -13.1056
rtibia 45.4521
rfoot -34.9193 -6.31454
rtoes 1.94256
lfemur 5.43824 8.8616 -38.8884
ltibia 10.8363
lfoot -7.44976 -16.4765
ltoes -11.9688
2519
root -1.61561 17.1254 1.00562 -1.64752 9.08576 24.8738
lowerback 1.43092 -3.85234 6.57513
upperback -2.84809 -4.23625 17.961
thorax -2.95251 -1.96559 16.5864
lowerneck -21.8788 -6.95757 -10.6384
upperneck 26.9934 -7.17322 2.92356
head 13.2518 -3.84863 1.62169
rclavicle -1.56667e-014 7.31528e-014
rhumerus -39.1312 -45.8067 -8.83008
rradius 44.6116
rwrist -20.375
rhand -32.1858 -1.44373
rfingers 7.12502
rthumb -5.42811 -31.3542
lclavicle -1.56667e-014 7.31528e-014
lhumerus 26.352 43.9518 -0.820507
lradius 54.4798
lwrist -18.146
lhand -26.9784 11.6544
lfingers 7.12502
lthumb -0.399218 41.6337
rfemur -4.2867 3.6205 -13.3664
rtibia 45.5783
rfoot -34.6251 -6.52718
rtoes 0.381192
lfemur 5.52385 8.92347 -39.0026
ltibia 10.8381
lfoot -7.44027 -16.5011
ltoes -12.0029
2520
root -1.61788 17.1185 1.0071 -1.63472 9.05583 25.1064
lowerback 1.34583 -3.78573 6.37349
upperback -2.79391 -4.18315 17.9481
thorax -2.84135 -1.94011 16.6818
lowerneck -21.8727 -6.97162 -10.5754
upperneck 26.8674 -7.26319 3.08832
head 13.2087 -3.85621 1.65984
rclavicle -5.41688e-015 3.18055e-014
rhumerus -39.2465 -46.0724 -8.79287
rradius 44.4527
rwrist -20.132
rhand -32.0017 -1.5977
rfingers 7.12502
rthumb -5.25036 -31.5127
lclavicle -5.41688e-015 3.18055e-014
lhumerus 26.6903 43.9096 -0.893977
lradius 54.5955
lwrist -18.0631
lhand -26.9399 11.7919
lfingers 7.12502
lthumb -0.362043 41.7713
rfemur -4.45201 3.13277 -13.763
rtibia 45.7197
rfoot -34.1259 -7.04673
rtoes -2.46378
lfemur 5.6083 9.06218 -39.1999
ltibia 10.7166
lfoot -7.40977 -16.6743
ltoes -12.2099
